<?xml version="1.0" encoding="UTF-8"?>
<svg xmlns="http://www.w3.org/2000/svg" xmlns:xlink="http://www.w3.org/1999/xlink" version="1.1" viewBox="0 0 1960 666.67" preserveAspectRatio="xMidYMid meet">
 <defs>
  <clipPath id="clipPath3">
   <path d="m-427.48 20.301h427.48v-40.601h-427.48z"/>
  </clipPath>
  <clipPath id="clipPath5">
   <path d="m0 0h1960v666.67h-1960z"/>
  </clipPath>
  <clipPath id="clipPath42">
   <path d="m-25.345 22.377h27.427v-34.476h-27.427z"/>
  </clipPath>
  <clipPath id="clipPath44">
   <path d="m0 0h1960v666.67h-1960z"/>
  </clipPath>
  <clipPath id="clipPath47">
   <path d="m-1.3356 9.2498h11.35v-13.323h-11.35z"/>
  </clipPath>
  <clipPath id="clipPath49">
   <path d="m0 0h1960v666.67h-1960z"/>
  </clipPath>
  <clipPath id="clipPath50">
   <path d="m-3.9277 6.0532h8.531v-6.09h-8.531z"/>
  </clipPath>
  <clipPath id="clipPath52">
   <path d="m0 0h1960v666.67h-1960z"/>
  </clipPath>
  <clipPath id="clipPath54">
   <path d="m-24.107 26.743h36.021v-29.517h-36.021z"/>
  </clipPath>
  <clipPath id="clipPath56">
   <path d="m0 0h1960v666.67h-1960z"/>
  </clipPath>
  <clipPath id="clipPath57">
   <path d="m-16.107 12.727h16.36v-22.595h-16.36z"/>
  </clipPath>
  <clipPath id="clipPath59">
   <path d="m0 0h1960v666.67h-1960z"/>
  </clipPath>
  <clipPath id="clipPath61">
   <path d="m-6.2257 6.9078h9.303v-7.625h-9.303z"/>
  </clipPath>
  <clipPath id="clipPath63">
   <path d="m0 0h1960v666.67h-1960z"/>
  </clipPath>
  <clipPath id="clipPath64">
   <path d="m-4.161 3.2848h4.226v-5.835h-4.226z"/>
  </clipPath>
  <clipPath id="clipPath66">
   <path d="m0 0h1960v666.67h-1960z"/>
  </clipPath>
  <clipPath id="clipPath68">
   <path d="m-595.59 500h1470v-500h-1470z"/>
  </clipPath>
  <clipPath id="clipPath69">
   <path d="m-22.591 23.819h31.179v-27.931h-31.179z"/>
  </clipPath>
  <clipPath id="clipPath71">
   <path d="m0 0h1960v666.67h-1960z"/>
  </clipPath>
  <clipPath id="clipPath72">
   <path d="m-12.73 1.1797h19.626v-15.61h-19.626z"/>
  </clipPath>
  <clipPath id="clipPath74">
   <path d="m0 0h1960v666.67h-1960z"/>
  </clipPath>
  <clipPath id="clipPath76">
   <path d="m-6.2251 6.9084h9.3027v-7.625h-9.3027z"/>
  </clipPath>
  <clipPath id="clipPath78">
   <path d="m0 0h1960v666.67h-1960z"/>
  </clipPath>
  <clipPath id="clipPath79">
   <path d="m-4.1612 3.285h4.2261v-5.836h-4.2261z"/>
  </clipPath>
  <clipPath id="clipPath81">
   <path d="m0 0h1960v666.67h-1960z"/>
  </clipPath>
  <clipPath id="clipPath83">
   <path d="m-1.3062 11.815h14.469v-17.759h-14.469z"/>
  </clipPath>
  <clipPath id="clipPath85">
   <path d="m0 0h1960v666.67h-1960z"/>
  </clipPath>
  <clipPath id="clipPath86">
   <path d="m-4.8058 7.9156h11.098v-8.055h-11.098z"/>
  </clipPath>
  <clipPath id="clipPath88">
   <path d="m0 0h1960v666.67h-1960z"/>
  </clipPath>
  <clipPath id="clipPath90">
   <path d="m-13.982 15.51h20.891v-17.119h-20.891z"/>
  </clipPath>
  <clipPath id="clipPath92">
   <path d="m0 0h1960v666.67h-1960z"/>
  </clipPath>
  <clipPath id="clipPath93">
   <path d="m-9.3423 7.3828h9.4893v-13.105h-9.4893z"/>
  </clipPath>
  <clipPath id="clipPath95">
   <path d="m0 0h1960v666.67h-1960z"/>
  </clipPath>
 </defs>
 <style type="text/css">
  .hero-dog-breathe { transform-box: fill-box; transform-origin: 50% 55%; animation: hero-breathe 3.6s ease-in-out infinite; }
  @keyframes hero-breathe { 0%, 100% { transform: scale(1); } 50% { transform: scale(1.014); } }
  .hero-bubble-float { animation: hero-bubble-drift 9s ease-in-out infinite; }
  .hero-bubble-float:nth-child(odd) { animation-duration: 11s; animation-delay: -2s; }
  .hero-bubble-float:nth-child(3n) { animation-duration: 7.5s; animation-delay: -4s; }
  @keyframes hero-bubble-drift { 0%, 100% { transform: translate(0, 0); } 50% { transform: translate(6px, -18px); } }
 </style>
 <path transform="matrix(1.3333 0 0 -1.3333 0 666.67)" d="m0 8e-3h1470v500h-1470z" fill="#FFFDF7"/>
 <path transform="matrix(1.3333 0 0 -1.3333 0 666.66)" d="m0 0h887.46c-7.734 221.3-140.51 410.79-329.86 500h-557.6z" fill="#F9C74F"/>
 <g clip-path="url(#clipPath5)" opacity=".5">
  <path transform="matrix(1.3333 0 0 -1.3333 756.11 601.46)" d="m0 0c0-11.212-95.694-20.3-213.74-20.3s-213.74 9.088-213.74 20.3 95.694 20.301 213.74 20.301 213.74-9.089 213.74-20.301" clip-path="url(#clipPath3)" fill="#F9C74F"/>
 </g>
 <g class="hero-dog-breathe">
  <path transform="matrix(1.3333 0 0 -1.3333 595.89 117.52)" d="m0 0c6.82 15.505 16.417 42.772 18.361 42.557 1.944-0.216 26.571-16.849 27.221-51.846v-7.994h-45.582z" fill="#bd582f"/>
  <path transform="matrix(1.3333 0 0 -1.3333 633.17 91.017)" d="m0 0c-0.745 4.646-2.262 8.642-4.309 10.372 2.914 1.726 9.935 0.324 12.637-4.322 0.542 2.16 1.615 3.241 1.615 3.241s3.244-1.944 3.783-7.886l1.946 1.297s1.965-2.111 1.421-5.478c1.959 1.454 3.657 0.616 3.657 0.616s0.323-3.238-1.513-6.047c4.104-0.219 5.182-2.486 5.182-2.486s-2.481-4.684-8.099-6.556c1.725-0.357 2.806-1.543 2.806-1.543s-4.103-3.891-6.802-4.323c-3.133-5.29-3.996-7.128-8.533-7.452-1.624 1.297-5.401 15.662-3.026 18.688-1.51 3.238-2.388 10.48-0.765 11.879" fill="#ffb77a"/>
  <path transform="matrix(1.3333 0 0 -1.3333 330.89 477.56)" d="m0 0c-1.731-6.481-1.081-9.291 5.398-17.929 6.481-8.642 19.658-41.913 22.034-48.823 2.378-6.914 1.946-10.804 4.324-16.205 2.375-5.397 20.092-9.606 31.325-9.606 11.232 0 13.826 3.125 15.77 6.152 1.943 3.023 0 7.558-1.729 9.936-1.73 2.378-4.25 14.111-4.54 16.561-0.29 2.448 3.313 11.955 4.753 14.977 1.441 3.027 1.153 4.466 6.048 6.34 4.895 1.872 18.577 7.92 27.075 19.874v18.723z" fill="#bd582f"/>
  <path transform="matrix(1.3333 0 0 -1.3333 575.91 511.94)" d="m0 0c4.468-13.395 17.139-51.558 18.002-54.438 0.86-2.877 0.722-6.477 11.088-10.224 10.372-3.747 27.224-1.729 32.116 0 4.9 1.728 1.014 9.938 0 12.386-1.009 2.447-1.438 3.169-1.438 17.567 0 14.401 9.435 40.402 9.435 40.402v9.288h-69.203z" fill="#bd582f"/>
  <path transform="matrix(1.3333 0 0 -1.3333 456.9 252.15)" d="m0 0c-0.333-0.313-0.678-0.601-1.035-0.85 0.368 0.29 0.691 0.568 1.035 0.85" fill="#db8458"/>
  <path transform="matrix(1.3333 0 0 -1.3333 628.91 481.98)" d="m0 0c-1.872-0.429-8.207 4.322-9.504 8.357-3.315 0.288-7.776 4.319-6.05 11.954 0 0-4.032 1.582-8.641 7.919-6.626 3.167-11.662 14.399-10.368 21.744-2.878 3.025-5.185 10.516-0.431 21.171-5.904 0.143-11.523 13.972-3.603 20.017-9.936 0.578-9.936 10.228-9.936 10.228s1.872-1.44 6.069 1.674c0.02 2.109 1.274 5.096 4.443 8.84-2.736 1.587-5.473 7.488-3.457 11.52-2.16 5.184-0.84 10.084 4.607 14.55-3.886 1.87-4.171 7.344-1.146 11.52 0.432-1.874 3.883-2.881 5.758-2.594 1.872 0.288 2.738 1.87 5.328 4.179-2.737 8.061 3.169 14.545 7.345 17.57-4.319 2.591-6.769 12.239-6.623 13.682 0.142 1.441 2.304 4.032 8.063 5.039-3.168 6.481 0.579 13.392 7.633 13.107 4.178 4.178 8.641 3.888 16.563 2.303 7.918-1.584 15.408-2.162 23.472 0 8.069 2.16 10.374 9.217 9.797 14.545-0.573 5.326 2.162 9.649 2.303 12.676 0.144 3.02 2.45 7.198 7.204 6.908 1.009-0.431 11.954 0.364 13.679 0.688 1.731 0.324 7.566 2.376 10.37-2.701 2.807-5.077 3.459-10.801 3.459-10.801s2.915-5.077 3.454-6.374c0.545-1.294-0.866-4.212-0.866-4.212s2.057-1.512 1.731-3.24c-0.32-1.729-0.97-1.836-0.755-3.889 0.216-2.051 1.297-4.755 0.321-6.047-0.97-1.299-5.182-3.564-8.207-5.942-3.022-2.376-5.182-7.887-5.182-8.857 2.912-0.756 3.241-3.239 3.454-3.888 8.533-3.675 19.876-9.184 25.058-21.603 8.102-7.344 8.318-15.231 8.534-22.577 0.216-7.345 4.214-15.013 10.156-15.337-0.865-5.187-4.971-7.996-10.803-6.373 3.025-16.094 1.618-22.575-1.624-33.161-3.237-10.583-4.966-20.523 0.542-23.115-2.917-3.456-8.746-3.887-11.558-1.186-0.213-10.911-2.591-25.816-9.936-31.432-1.944-7.994-6.373-18.04-18.576-23.872-12.209-5.835-18.043-15.012-17.067-21.928-6.482-1.621-14.476-0.645-16.957 4.535-3.998-6.803-15.341-7.342-18.259-5.832-2.914-3.349-11.016-6.374-16.632-4.751l3.097 12.46c-2.306 4.032-0.722 9.502 3.741 12.526" fill="#f29a50"/>
  <path transform="matrix(1.3333 0 0 -1.3333 252.16 354.29)" d="m0 0c-8.066 0.863-9.648 9.65-7.632 13.539-2.594 5.038-0.724 10.659 6.338 14.113-6.772 2.882-3.025 13.973 1.438 14.117-0.288 2.881 2.594 8.495 9.358 9.36 0 0-2.732 11.232 0 17.427 2.74 6.191 7.059 9.506 14.694 10.369 0.429-1.728 3.166-5.041 8.783-2.881 0.862-5.909 8.931-8.785 16.563-9.584 0 0-2.594-3.523-2.45-4.674 0.149-1.153 2.882-1.587 7.491-1.443-1.297-4.604 8.208-11.089 17.424-9.214 0 0 4.178-1.15 14.114 4.178 0 0-0.863-6.053 0-6.915 0.868-0.866 10.372 2.159 13.251 5.616 0 0 8.497-1.731 14.257 0 5.763 1.725 9.651 7.632 10.514 12.283 4.609 0.185 8.353 5.431 8.065 10.041 0.866-0.288 4.61-5.186 3.604-9.939 6.625-1.006 13.821 5.619 16.705 9.36 0.357 0.25 0.701 0.538 1.034 0.851 4.823 3.959 7.643 7.406 8.182 10.097 0.575 2.881 0.719 13.248 2.304 15.408-2.16 3.744-0.717 10.087 4.178 13.395-4.9 2.45-6.338 8.931-4.751 12.963 3.163-0.575 9.217-1.153 12.095 5.762 2.881 6.909 13.107 14.255 16.708 15.984-3.747 3.169-4.589 11.091-2.437 14.691 3.587-2.308 12.806-4.178 15.975-1.297-0.149 8.783-2.016 25.057-0.724 25.203 1.297 0.144 16.135-2.447 24.198-8.929 2.445 2.304 8.495 5.185 13.536 5.038-1.004 2.738-4.175 6.051-3.169 6.197 1.009 0.141 9.363 0.575 14.258-3.89-3.888 5.474-3.167 8.641-2.592 8.641 0.553 0 22.098-1.61 27.789-13.837 20.154-0.041 34.997-6.368 44.221-19.288 9.363-13.104 7.054-21.171 8.066-21.604-4.753 0.29-7.059-3.888-7.203-6.909-0.142-3.027-2.876-7.349-2.304-12.675 0.578-5.329-1.728-12.386-9.797-14.545-8.063-2.162-15.554-1.585-23.471 0-7.923 1.584-12.385 1.874-16.564-2.304-7.054 0.285-10.801-6.625-7.632-13.107-5.76-1.007-7.922-3.598-8.063-5.038-0.147-1.443 2.303-11.091 6.623-13.683-4.176-3.024-10.082-9.509-7.345-17.57-2.591-2.308-3.457-3.89-5.329-4.178-1.874-0.288-5.325 0.719-5.757 2.594-3.025-4.176-2.74-9.651 1.145-11.52-5.446-4.466-6.766-9.366-4.607-14.551-2.016-4.031 0.722-9.933 3.457-11.52-3.169-3.744-4.422-6.731-4.443-8.839-4.196-3.115-6.068-1.674-6.068-1.674s0-9.651 9.936-10.228c-7.92-6.045-2.301-19.874 3.602-20.018-4.753-10.655-2.447-18.145 0.432-21.171-1.294-7.344 3.742-18.577 10.367-21.743 4.61-6.338 8.641-7.919 8.641-7.919-1.725-7.635 2.735-11.667 6.051-11.955 1.296-4.034 7.631-8.785 9.503-8.356-4.462-3.025-6.047-8.495-3.741-12.527l-3.097-12.46s-9.435-25.998-9.435-40.399c0-14.405 0.429-15.121 1.441-17.569 1.006-2.449 4.895-10.659 0-12.39-4.895-1.726-21.746-3.744-32.116 0-10.372 3.75-10.225 7.349-11.091 10.231-0.865 2.876-13.533 41.044-17.999 54.437-8.356-2.016-19.588 0.431-20.739 1.007-5.619-1.872-15.267-1.582-19.589-1.007-4.319 0.578-8.641-0.144-9.36-2.016-1.585 1.009-0.432 5.328-1.153 5.328-7.922-0.721-18.865 0.432-24.627 3.744-8.498-11.954-22.18-18.002-27.072-19.876-4.902-1.875-4.615-3.312-6.056-6.337-1.438-3.023-5.041-12.53-4.753-14.977 0.29-2.447 2.812-14.184 4.543-16.562 1.728-2.375 3.67-6.913 1.728-9.935-1.944-3.025-4.538-6.152-15.775-6.152-11.233 0-28.944 4.21-31.319 9.609-2.378 5.4-1.947 9.285-4.323 16.201-2.375 6.913-15.551 40.182-22.033 48.823-6.484 8.641-7.131 11.449-5.403 17.93s6.484 12.529 2.809 20.957c-3.672 8.423-16.417 26.785-17.714 44.067-1.296 17.283 0 20.09 0 20.09l1.513 11.956z" fill="#db7c3d"/>
  <path transform="matrix(1.3333 0 0 -1.3333 177.65 216.22)" d="m0 0c-0.578 4.178 11.667 6.913 17.717 1.728 1.009 6.482-2.591 18.436 1.15 23.045-2.303 8.927 1.297 17.858 2.591 21.171 1.3 3.313 2.019 8.495 1.3 10.657 2.879 1.15 7.92-1.155 9.214-5.331 2.162 9.507 13.248 20.595 21.748 22.611 8.354 8.786 15.701 11.957 19.155 14.117 3.459 2.162 5.616 5.618 4.895 8.782 4.321-0.572 8.79-3.456 8.644-9.792 11.522 6.628 32.695 10.516 42.197 7.923 14.542 1.006 25.924-2.162 30.821-1.875 4.895 0.29 13.68 4.895 13.68 11.233 7.203-1.295 16.417-16.271 9.65-25.203 9.363-2.447 13.251-7.057 14.98-13.68 1.728-6.625 8.928-6.913 11.373-5.618 4.756-7.776 3.462-23.906-6.91-26.068 6.05-2.301 11.378-2.733 11.378-2.733s-0.724-9.94-9.94-9.65c7.634-6.913 9.794-17.285 7.347-25.639 2.881-5.041 4.324-16.99-2.591-23.474-2.884-3.742-10.08-10.367-16.705-9.361 1.007 4.754-2.737 9.651-3.603 9.939 0.287-4.61-3.457-9.856-8.066-10.041-0.863-4.651-4.751-10.557-10.514-12.283-5.76-1.731-14.257 0-14.257 0-2.879-3.457-12.383-6.481-13.251-5.616-0.863 0.863 0 6.915 0 6.915-9.936-5.328-14.114-4.178-14.114-4.178-9.216-1.874-18.721 4.61-17.424 9.214-4.609-0.144-7.341 0.29-7.49 1.443-0.144 1.151 2.449 4.674 2.449 4.674-7.632 0.799-15.7 3.675-16.563 9.584-5.616-2.16-8.354 1.153-8.783 2.881-7.635-0.863-11.954-4.178-14.694-10.369-2.732-6.194 0-17.427 0-17.427-6.764-0.865-9.645-6.479-9.358-9.36-4.463-0.144-8.21-11.235-1.438-14.116-7.062-3.455-8.931-9.076-6.338-14.114-2.016-3.888-0.434-12.676 7.632-13.539l7.201-3.597-1.512-11.957s-6.485-5.4-8.428-12.311c-1.942-6.913-10.365 1.366-8.496 12.601-13.679-1.44-21.024 7.678-20.307 9.671 0.722 1.996 3.459 1.705 3.459 1.705-9.651 4.751-9.651 7.92-9.219 10.801-5.902 2.162-8.061 14.836-3.169 19.302-7.774 5.325-12.098 21.021-8.066 26.64-4.032 6.05-4.317 15.552-2.586 19.733 1.723 4.172-1.587 10.225-3.026 10.8 0.717 1.729 4.032 3.889 6.767 2.592-1.009 4.321-4.324 15.556-8.5 17.57" fill="#f29a50"/>
  <path transform="matrix(1.3333 0 0 -1.3333 403.67 282.27)" d="m0 0c5.763 1.726 9.651 7.632 10.514 12.283 4.609 0.185 8.353 5.431 8.066 10.041 0.852-0.283 4.491-5.047 3.633-9.736-1.535-3.793-5.662-6.884-9.581-6.152-1.882-4.338-6.987-9.228-12.988-9.623-6.005-0.398-13.901 3.187-13.901 3.187s8.497-1.731 14.257 0" fill="#bd582f"/>
  <path transform="matrix(1.3333 0 0 -1.3333 435.7 277.04)" d="m0 0c1.33 2.874 0.711 6.24-0.101 8.382 6.102 0.226 12.332 6.019 14.959 9.437 0.357 0.25 0.702 0.537 1.035 0.85 4.823 3.96 7.643 7.407 8.182 10.098 0.575 2.881 0.719 13.248 2.303 15.408-1.214 2.106-1.25 5.028-0.21 7.771 4.355-7.987 3.841-17.355-0.021-24.253 1.682-5.557 0.414-17.528-7.776-22.3-3.644-3.007-12.142-7.855-18.371-5.393" fill="#bd582f"/>
  <path transform="matrix(1.3333 0 0 -1.3333 550.94 141.28)" d="m0 0c-0.75 4.643-2.263 8.644-4.317 10.37 2.92 1.728 9.941 0.323 12.64-4.322 0.539 2.162 1.62 3.243 1.62 3.243s3.244-1.946 3.783-7.886l1.941 1.294s1.967-2.111 1.42-5.477c1.965 1.453 3.657 0.616 3.657 0.616s0.326-3.241-1.51-6.048c4.104-0.213 5.185-2.486 5.185-2.486s-2.486-4.683-8.102-6.551c1.728-0.359 2.809-1.545 2.809-1.545s-4.106-3.891-6.805-4.325c-3.131-5.29-3.998-7.129-8.533-7.45-1.618 1.295-5.406 15.663-3.025 18.688-1.513 3.24-2.394 10.474-0.763 11.879" fill="#ffb77a"/>
 </g>
 <g fill="#bd582f">
  <path transform="matrix(1.3333 0 0 -1.3333 559.83 116.55)" d="m0 0s0.408-0.295 1.125-0.814c0.724-0.493 1.72-1.273 2.933-2.16 1.206-0.903 2.593-1.974 4.065-3.13 1.466-1.168 3.014-2.424 4.504-3.744 0.739-0.665 1.507-1.302 2.201-1.993 0.708-0.673 1.427-1.32 2.067-2 0.645-0.668 1.307-1.284 1.862-1.931 0.555-0.645 1.15-1.205 1.607-1.795 0.468-0.581 0.93-1.092 1.328-1.554 0.367-0.485 0.688-0.909 0.95-1.256 0.534-0.696 0.858-1.089 0.858-1.089l0.023-0.031c0.167-0.195 0.462-0.226 0.66-0.059 0.162 0.134 0.208 0.363 0.126 0.547 0 0-0.211 0.47-0.614 1.282-0.393 0.822-1.009 1.959-1.862 3.261-0.4 0.675-0.922 1.336-1.451 2.052-0.527 0.724-1.125 1.448-1.769 2.175-1.263 1.482-2.74 2.935-4.276 4.322-0.755 0.709-1.585 1.33-2.36 1.988-0.796 0.624-1.589 1.235-2.383 1.787-1.574 1.12-3.11 2.073-4.455 2.83-2.687 1.513-4.641 2.245-4.641 2.245-0.277 0.107-0.583-0.034-0.691-0.309-0.084-0.231 0-0.488 0.193-0.624"/>
  <path transform="matrix(1.3333 0 0 -1.3333 526.34 138.1)" d="m0 0c-0.208-1.456-0.321-2.917-0.48-4.378-0.149-1.451-0.239-2.923-0.234-4.422l-0.025-2.245c2e-3 -0.745 0.094-1.499 0.138-2.252 0.064-0.75 0.08-1.507 0.237-2.247l0.387-2.234 0.087 0.801c-0.308-0.873-0.703-1.756-0.883-2.64-0.19-0.883-0.452-1.761-0.537-2.653-0.094-0.891-0.253-1.774-0.259-2.668-0.01-0.888-0.116-1.777-0.031-2.666l0.075-1.33c0.033-0.444 0.025-0.888 0.115-1.33 0.149-0.878 0.265-1.759 0.439-2.624l0.742-2.569c0.347-0.826 0.712-1.643 1.089-2.434 0.108-0.234 0.386-0.331 0.617-0.221 0.197 0.093 0.297 0.314 0.252 0.522l-0.019 0.071c-0.192 0.825-0.393 1.634-0.618 2.43l-0.334 2.483c-0.077 0.83-0.098 1.667-0.149 2.494-0.041 0.832 0.018 1.669 0.023 2.496-5e-3 0.832 0.136 1.658 0.185 2.488 0.038 0.832 0.233 1.639 0.357 2.455 0.084 0.827 0.339 1.595 0.524 2.388 0.169 0.804 0.536 1.485 0.765 2.243l0.149 0.485-0.067 0.318-0.388 2.088c-0.151 0.693-0.172 1.407-0.275 2.111-0.074 0.704-0.195 1.404-0.231 2.119l-0.12 2.149-0.149 2.154-0.065 2.199c-0.087 1.466-0.125 2.932-0.256 4.398-0.028 0.293-0.29 0.509-0.581 0.483-0.251-0.023-0.449-0.22-0.48-0.462"/>
  <path transform="matrix(1.3333 0 0 -1.3333 481.12 261.19)" d="m0 0c-0.799-0.714-1.521-1.464-2.206-2.26-0.696-0.791-1.371-1.602-2.001-2.45-0.626-0.847-1.219-1.726-1.776-2.632-0.555-0.902-1.043-1.854-1.534-2.807-0.449-0.976-0.891-1.956-1.225-2.997-0.385-1.012-0.632-2.087-0.891-3.156l-0.239-1.646c-0.102-0.544-0.087-1.109-0.12-1.672-0.018-0.56-0.062-1.119 0.013-1.682l0.166-1.692 1.046 1.854c-0.565-0.293-1.166-0.57-1.623-0.95-0.511-0.342-0.925-0.742-1.336-1.145-0.819-0.807-1.474-1.708-2.057-2.635-0.562-0.938-1.047-1.906-1.458-2.9-0.398-0.999-0.691-2.033-0.946-3.068-0.21-1.048-0.387-2.101-0.433-3.164-0.052-0.529-0.01-1.068-0.018-1.597-0.013-0.529 0.059-1.064 0.126-1.588 0.046-0.528 0.146-1.047 0.277-1.563 0.113-0.519 0.215-1.033 0.408-1.525 0.182-0.494 0.301-1.007 0.539-1.477l0.702-1.4c0.151-0.306 0.519-0.429 0.824-0.275 0.267 0.132 0.398 0.432 0.321 0.709l-0.018 0.072-0.362 1.392c-0.139 0.449-0.18 0.93-0.27 1.392-0.105 0.462-0.118 0.935-0.149 1.402-0.043 0.467-0.061 0.935-0.028 1.407 0.023 0.465-3e-3 0.927 0.069 1.392 0.057 0.462 0.067 0.927 0.17 1.384 0.156 0.914 0.375 1.813 0.634 2.702l0.462 1.304 0.55 1.264c0.39 0.829 0.842 1.617 1.338 2.367l0.809 1.056c0.298 0.311 0.557 0.678 0.876 0.945 0.305 0.287 0.608 0.575 0.94 0.775 0.316 0.265 0.639 0.368 0.949 0.55l1.143 0.665-0.095 1.189-0.11 1.366c-0.074 0.452-0.031 0.92-0.026 1.382 0.021 0.462-0.01 0.924 0.077 1.389l0.183 1.4c0.22 0.922 0.357 1.864 0.665 2.783 0.241 0.93 0.624 1.827 0.937 2.748 0.732 1.818 1.602 3.596 2.571 5.336 0.934 1.762 2.044 3.457 3.171 5.103l0.013 0.016c0.221 0.326 0.138 0.768-0.185 0.988-0.275 0.19-0.632 0.159-0.873-0.051"/>
  <path transform="matrix(1.3333 0 0 -1.3333 526.43 518.55)" d="m0 0s-0.139 0.2-0.29 0.493c-0.167 0.275-0.393 0.729-0.709 1.199-0.272 0.519-0.639 1.058-0.983 1.669-0.17 0.311-0.342 0.627-0.55 0.927-0.213 0.288-0.321 0.66-0.524 0.971-0.398 0.635-0.742 1.297-1.045 1.941-0.151 0.324-0.349 0.616-0.508 0.909-0.162 0.293-0.278 0.586-0.414 0.851-0.503 1.065-1.032 1.795-1.032 1.795l-0.051 0.066c-0.216 0.293-0.622 0.355-0.912 0.144-0.144-0.103-0.231-0.251-0.259-0.41 0 0-0.16-0.879-0.114-2.219 0.026-0.332-7e-3 -0.709 0.088-1.076 0.087-0.37 0.157-0.776 0.277-1.174 0.113-0.403 0.236-0.821 0.357-1.248 0.19-0.401 0.388-0.807 0.586-1.21 0.205-0.402 0.408-0.806 0.672-1.163 0.255-0.369 0.532-0.711 0.802-1.04 0.249-0.336 0.562-0.619 0.86-0.873 0.295-0.259 0.56-0.509 0.853-0.697 0.57-0.389 1.068-0.665 1.484-0.821 0.39-0.172 0.603-0.195 0.603-0.195l0.126-0.01c0.409-0.041 0.773 0.259 0.817 0.673 0.015 0.182-0.036 0.353-0.134 0.498"/>
  <path transform="matrix(1.3333 0 0 -1.3333 499.02 489.96)" d="m0 0c0.01 0.021-0.092-0.359-0.154-0.966-0.062-0.61-0.108-1.486 0.015-2.526 0.083-1.043 0.342-2.25 0.765-3.498 0.242-0.612 0.45-1.269 0.802-1.872 0.308-0.624 0.639-1.253 1.063-1.826 0.38-0.603 0.853-1.135 1.294-1.677 0.44-0.541 0.991-0.971 1.456-1.43 0.47-0.473 1.046-0.783 1.526-1.145 0.472-0.375 1.001-0.604 1.461-0.85 0.467-0.231 0.883-0.465 1.289-0.589 0.396-0.143 0.753-0.246 1.038-0.339 0.577-0.169 0.906-0.249 0.906-0.249 0.342-0.079 0.681 0.129 0.758 0.468 0.056 0.228-0.021 0.454-0.18 0.603l-0.051 0.051s-0.242 0.227-0.666 0.594c-0.218 0.175-0.469 0.403-0.773 0.629-0.308 0.219-0.585 0.562-0.94 0.857-0.338 0.309-0.716 0.627-1.063 1.018-0.351 0.382-0.754 0.747-1.104 1.186-0.347 0.437-0.76 0.837-1.078 1.331-0.344 0.466-0.719 0.921-1.007 1.437-1.295 1.973-2.278 4.155-2.92 5.881-0.663 1.736-1.024 2.933-1.024 2.935-6e-3 0.391-0.329 0.702-0.717 0.694-0.39-3e-3 -0.701-0.326-0.696-0.717"/>
 </g>
 <path transform="matrix(1.3333 0 0 -1.3333 699.73 444.7)" d="m0 0s0.139 0.198 0.293 0.496c0.169 0.269 0.395 0.726 0.709 1.199 0.272 0.516 0.642 1.053 0.981 1.669 0.169 0.305 0.341 0.621 0.549 0.919 0.216 0.293 0.324 0.663 0.524 0.976 0.398 0.635 0.745 1.295 1.05 1.944 0.147 0.321 0.345 0.614 0.504 0.907 0.167 0.29 0.28 0.588 0.413 0.85 0.509 1.065 1.038 1.792 1.038 1.792l0.048 0.067c0.216 0.293 0.622 0.357 0.912 0.146 0.142-0.102 0.231-0.254 0.262-0.41 0 0 0.159-0.879 0.108-2.219-0.026-0.332 0.01-0.709-0.085-1.079-0.087-0.37-0.157-0.773-0.277-1.174-0.113-0.403-0.237-0.821-0.357-1.245-0.19-0.401-0.388-0.804-0.586-1.207-0.205-0.405-0.405-0.806-0.672-1.166-0.252-0.369-0.529-0.711-0.804-1.037-0.249-0.342-0.557-0.622-0.858-0.879-0.293-0.256-0.56-0.508-0.85-0.693-0.572-0.39-1.068-0.663-1.487-0.822-0.393-0.174-0.603-0.195-0.603-0.195l-0.124-0.01c-0.408-0.041-0.775 0.257-0.816 0.673-0.018 0.18 0.033 0.357 0.128 0.498" fill="#db7c3d"/>
 <path transform="matrix(1.3333 0 0 -1.3333 727.13 416.11)" d="m0 0c-8e-3 0.018 0.09-0.362 0.151-0.971 0.065-0.608 0.111-1.487-0.01-2.524-0.082-1.048-0.344-2.247-0.767-3.498-0.245-0.613-0.453-1.268-0.802-1.877-0.311-0.619-0.639-1.251-1.06-1.823-0.381-0.601-0.856-1.135-1.297-1.677-0.439-0.545-0.991-0.965-1.459-1.43-0.47-0.468-1.043-0.781-1.523-1.146-0.47-0.375-1.004-0.601-1.461-0.847-0.465-0.234-0.881-0.462-1.289-0.591-0.396-0.144-0.75-0.244-1.038-0.336-0.575-0.172-0.906-0.252-0.906-0.252-0.336-0.077-0.681 0.128-0.76 0.468-0.057 0.228 0.023 0.457 0.179 0.606l0.055 0.048s0.243 0.229 0.667 0.596c0.216 0.172 0.467 0.398 0.771 0.629 0.308 0.219 0.588 0.56 0.942 0.855 0.336 0.311 0.714 0.635 1.061 1.022 0.352 0.378 0.754 0.745 1.104 1.182 0.347 0.439 0.757 0.839 1.076 1.333 0.346 0.464 0.724 0.921 1.012 1.44 1.292 1.967 2.275 4.153 2.917 5.878 0.66 1.736 1.022 2.933 1.022 2.933 8e-3 0.393 0.329 0.701 0.716 0.698 0.393-7e-3 0.704-0.328 0.699-0.716" fill="#db7c3d"/>
 <g fill="#bd582f">
  <path transform="matrix(1.3333 0 0 -1.3333 442.58 464.1)" d="m0 0c0-3e-3 -0.162-2.237-0.624-5.57-0.126-0.827-0.265-1.726-0.408-2.674-0.142-0.944-0.37-1.928-0.534-2.953-0.247-1.009-0.44-2.067-0.707-3.119-0.264-1.056-0.539-2.124-0.87-3.18-0.285-1.068-0.632-2.116-1.02-3.125-0.326-1.038-0.737-2.024-1.137-2.974-0.381-0.966-0.802-1.872-1.22-2.724-0.403-0.867-0.786-1.685-1.217-2.394-0.396-0.737-0.768-1.412-1.092-2.008-0.364-0.581-0.678-1.082-0.94-1.498-0.508-0.854-0.796-1.343-0.796-1.343l-0.031-0.05c-0.174-0.293-0.077-0.673 0.219-0.848 0.244-0.144 0.552-0.103 0.744 0.087 0 0 0.419 0.411 1.154 1.122 0.359 0.367 0.798 0.817 1.294 1.33 0.475 0.54 0.965 1.179 1.504 1.878 0.565 0.69 1.123 1.474 1.631 2.352 0.534 0.863 1.13 1.764 1.587 2.771 0.501 0.994 1.017 2.016 1.431 3.105 0.447 1.081 0.842 2.193 1.181 3.325 0.395 1.117 0.622 2.278 0.899 3.408 0.285 1.122 0.421 2.26 0.603 3.349 0.275 2.188 0.411 4.245 0.362 6.004-0.02 3.518-0.608 5.844-0.608 5.844-0.09 0.385-0.475 0.619-0.861 0.53-0.305-0.073-0.518-0.347-0.544-0.645"/>
  <path transform="matrix(1.3333 0 0 -1.3333 301.83 298.21)" d="m0 0s-0.156-0.09-0.457-0.256c-0.3-0.178-0.745-0.432-1.273-0.784-1.048-0.727-2.597-1.723-4.258-3.146-1.7-1.376-3.567-3.13-5.434-5.136-0.914-1.022-1.893-2.044-2.758-3.197-0.907-1.12-1.816-2.27-2.625-3.492-0.858-1.189-1.61-2.445-2.367-3.67-0.779-1.217-1.377-2.506-2.029-3.718-0.671-1.195-1.122-2.453-1.633-3.596-0.53-1.14-0.904-2.27-1.241-3.312-0.737-2.068-1.122-3.85-1.404-5.093-0.28-1.24-0.417-1.952-0.417-1.952-0.061-0.336 0.16-0.659 0.499-0.726 0.279-0.051 0.554 0.098 0.675 0.344l0.018 0.046s0.303 0.65 0.793 1.792c0.234 0.571 0.522 1.264 0.856 2.063 0.333 0.788 0.816 1.641 1.248 2.599 0.431 0.963 0.94 1.984 1.53 3.038 0.575 1.058 1.135 2.195 1.834 3.31 0.683 1.122 1.325 2.316 2.118 3.444 0.745 1.152 1.485 2.339 2.332 3.451l1.212 1.707c0.429 0.553 0.85 1.102 1.269 1.649 0.827 1.102 1.713 2.127 2.534 3.154 1.706 1.995 3.329 3.839 4.792 5.359 1.459 1.531 2.686 2.799 3.593 3.639 0.896 0.845 1.405 1.322 1.405 1.322l0.025 0.026c0.286 0.267 0.298 0.714 0.031 0.999-0.228 0.244-0.585 0.293-0.868 0.136"/>
  <path transform="matrix(1.3333 0 0 -1.3333 307.07 287.26)" d="m0 0s-1.418 0.092-3.39-0.375c-0.999-0.211-2.131-0.581-3.305-1.079-0.578-0.264-1.189-0.524-1.767-0.865-0.578-0.342-1.189-0.65-1.738-1.068-1.135-0.766-2.188-1.662-3.077-2.596-0.473-0.44-0.845-0.948-1.212-1.405-0.38-0.45-0.688-0.915-0.955-1.359-0.56-0.863-0.914-1.643-1.13-2.203-0.226-0.552-0.334-0.871-0.334-0.871-0.111-0.328 0.064-0.688 0.388-0.804 0.223-0.071 0.457-0.018 0.619 0.121l0.054 0.044s0.243 0.215 0.649 0.601c0.196 0.195 0.445 0.423 0.699 0.698 0.282 0.255 0.601 0.539 0.945 0.853 0.318 0.324 0.717 0.634 1.112 0.975 0.393 0.347 0.821 0.687 1.274 1.03 0.439 0.357 0.901 0.712 1.399 1.04 0.47 0.363 0.971 0.704 1.484 1.023 0.994 0.68 2.057 1.263 3.036 1.862 1.009 0.562 1.957 1.075 2.766 1.517 1.664 0.886 2.775 1.477 2.775 1.477 0.36 0.187 0.496 0.629 0.316 0.988-0.126 0.237-0.364 0.375-0.608 0.396"/>
 </g>
 <g fill="#db7c3d">
  <path transform="matrix(1.3333 0 0 -1.3333 717.98 274.72)" d="m0 0s0.162-0.09 0.462-0.257c0.301-0.175 0.745-0.426 1.271-0.783 1.054-0.725 2.597-1.721 4.256-3.144 1.702-1.381 3.572-3.13 5.439-5.135 0.911-1.02 1.892-2.05 2.76-3.198 0.907-1.119 1.813-2.273 2.617-3.495 0.863-1.184 1.618-2.445 2.373-3.672 0.776-1.21 1.377-2.504 2.026-3.711 0.673-1.196 1.125-2.455 1.636-3.6 0.529-1.14 0.901-2.273 1.241-3.313 0.736-2.062 1.122-3.852 1.404-5.092 0.283-1.241 0.416-1.949 0.411-1.949 0.069-0.339-0.154-0.663-0.491-0.727-0.284-0.054-0.562 0.097-0.677 0.347l-0.016 0.041c-3e-3 0-0.303 0.652-0.796 1.795-0.236 0.567-0.526 1.263-0.855 2.062-0.334 0.789-0.817 1.638-1.251 2.602-0.429 0.96-0.942 1.979-1.528 3.035-0.575 1.058-1.14 2.193-1.833 3.31-0.681 1.119-1.325 2.314-2.116 3.444-0.748 1.152-1.49 2.334-2.34 3.451l-1.209 1.708c-0.424 0.549-0.845 1.099-1.263 1.643-0.833 1.107-1.716 2.132-2.538 3.154-1.703 2-3.328 3.847-4.792 5.367-1.456 1.525-2.686 2.794-3.59 3.636-0.899 0.842-1.41 1.323-1.41 1.323l-0.023 0.023c-0.285 0.269-0.303 0.719-0.031 1.001 0.226 0.241 0.591 0.29 0.863 0.134"/>
  <path transform="matrix(1.3333 0 0 -1.3333 712.74 263.77)" d="m0 0s1.415 0.09 3.39-0.38c0.996-0.208 2.131-0.58 3.305-1.073 0.577-0.268 1.189-0.524 1.766-0.868 0.578-0.345 1.189-0.653 1.739-1.069 1.13-0.765 2.188-1.659 3.074-2.598 0.473-0.44 0.847-0.943 1.214-1.403 0.386-0.452 0.691-0.917 0.956-1.36 0.56-0.858 0.914-1.642 1.13-2.202 0.228-0.554 0.336-0.87 0.336-0.87 0.111-0.331-0.064-0.688-0.393-0.804-0.221-0.074-0.455-0.018-0.621 0.121l-0.046 0.041s-0.249 0.218-0.653 0.601c-0.195 0.195-0.444 0.424-0.701 0.698-0.28 0.255-0.598 0.54-0.942 0.853-0.319 0.329-0.714 0.64-1.112 0.973-0.393 0.352-0.822 0.691-1.276 1.032-0.442 0.358-0.899 0.715-1.4 1.043-0.47 0.362-0.963 0.704-1.482 1.02-0.993 0.685-2.059 1.268-3.035 1.867-1.009 0.557-1.957 1.073-2.763 1.517-1.67 0.886-2.779 1.474-2.779 1.474-0.357 0.19-0.5 0.63-0.313 0.989 0.118 0.234 0.359 0.377 0.606 0.398"/>
  <path transform="matrix(1.3333 0 0 -1.3333 287.11 210.17)" d="m0 0c0.177 0.778 0.313 1.569 0.549 2.324 0.26 0.75 0.489 1.51 0.771 2.244 0.616 1.454 1.276 2.877 2.137 4.186 0.829 1.32 1.735 2.579 2.842 3.708 0.226 0.226 0.583 0.283 0.871 0.111 0.336-0.2 0.449-0.635 0.249-0.973l-8e-3 -0.013c-0.377-0.629-0.688-1.264-1.03-1.913-0.331-0.653-0.634-1.307-0.903-1.983-0.293-0.662-0.512-1.351-0.778-2.013-0.255-0.673-0.419-1.369-0.653-2.047-0.197-0.68-0.334-1.376-0.508-2.062-0.142-0.691-0.221-1.392-0.35-2.08-0.136-0.691-0.102-1.394-0.167-2.088-0.074-0.696-0.022-1.384 3e-3 -2.08 0.011-0.691 0.038-1.384 0.183-2.057 0.141-0.678 0.177-1.376 0.356-2.044l0.565-1.995c0.167-0.678 0.545-1.282 0.784-1.934 0.274-0.64 0.498-1.307 0.896-1.895l1.068-1.829c0.306-0.642 0.827-1.155 1.227-1.746l1.282-1.733 0.074-0.1c0.401-0.537 0.345-1.302-0.151-1.778l-0.593-0.569c-0.182-0.206-0.316-0.45-0.488-0.673-0.095-0.106-0.118-0.252-0.185-0.375l-0.182-0.391c-0.116-0.262-0.149-0.557-0.239-0.837-0.064-0.29-0.052-0.591-0.085-0.899-0.01-0.3 0.049-0.601 0.069-0.914 0.047-0.303 0.149-0.595 0.208-0.909 0.103-0.292 0.239-0.573 0.357-0.878l0.052-0.131c0.097-0.254 0.02-0.552-0.213-0.722-0.275-0.195-0.655-0.131-0.853 0.144-0.226 0.319-0.475 0.634-0.686 0.976-0.172 0.354-0.362 0.714-0.492 1.094l-0.163 0.583c-0.043 0.195-0.125 0.39-0.133 0.593-0.034 0.406-0.11 0.817-0.093 1.23 0.036 0.408 0.032 0.84 0.126 1.245l0.165 0.622c0.064 0.205 0.1 0.424 0.208 0.609 0.192 0.372 0.369 0.763 0.608 1.117l-0.822 0.896c-0.498 0.604-1.106 1.127-1.52 1.803l-1.319 1.98c-0.478 0.639-0.786 1.384-1.143 2.1-0.324 0.732-0.737 1.43-0.958 2.209l-0.711 2.311c-0.229 0.77-0.291 1.587-0.424 2.383-0.154 0.794-0.18 1.6-0.185 2.406-0.011 0.807-0.064 1.616 0.064 2.412 0.111 0.793 0.131 1.602 0.321 2.375"/>
  <path transform="matrix(1.3333 0 0 -1.3333 279.88 206.23)" d="m0 0c3e-3 0.655-7e-3 1.371 0.124 2.111 0.12 0.74 0.148 1.551 0.395 2.339 0.218 0.789 0.38 1.636 0.709 2.437 0.303 0.815 0.613 1.639 1.022 2.422 0.352 0.809 0.824 1.551 1.279 2.288 0.421 0.753 0.983 1.397 1.463 2.06 1.038 1.271 2.109 2.362 3.123 3.181 1.983 1.685 3.652 2.373 3.652 2.373 0.249 0.105 0.554 0.06 0.77-0.136 0.291-0.272 0.308-0.729 0.036-1.022 0 0-1.084-1.181-2.571-3.064-0.359-0.475-0.747-0.989-1.16-1.528-0.404-0.546-0.789-1.145-1.222-1.738-0.37-0.632-0.822-1.245-1.189-1.913-0.401-0.655-0.761-1.341-1.107-2.034-0.388-0.678-0.681-1.395-0.973-2.096-0.347-0.688-0.558-1.407-0.817-2.093-0.278-0.675-0.437-1.366-0.635-2.01-0.208-0.645-0.351-1.271-0.464-1.849-0.111-0.586-0.293-1.117-0.355-1.6-0.077-0.483-0.143-0.909-0.203-1.256-0.136-0.708-0.215-1.112-0.215-1.112l-8e-3 -0.051c-0.046-0.242-0.236-0.439-0.49-0.491-0.337-0.066-0.671 0.149-0.735 0.486 0 0-0.082 0.421-0.203 1.168-0.121 0.745-0.28 1.823-0.226 3.128"/>
  <path transform="matrix(1.3333 0 0 -1.3333 295.03 172.75)" d="m0 0c-0.2-0.293-0.49-0.74-0.878-1.217-0.368-0.493-0.809-1.053-1.297-1.616-0.236-0.297-0.475-0.601-0.745-0.88-0.288-0.278-0.511-0.609-0.778-0.902-0.531-0.595-1.084-1.174-1.569-1.746-0.498-0.568-1.035-1.053-1.433-1.523-0.824-0.907-1.551-1.466-1.551-1.466l-0.054-0.041c-0.131-0.103-0.305-0.154-0.483-0.129-0.357 0.049-0.611 0.38-0.562 0.735 0 0 0.118 0.904 0.565 2.185 0.19 0.663 0.58 1.333 0.981 2.075 0.218 0.357 0.411 0.753 0.673 1.102 0.272 0.346 0.549 0.696 0.821 1.048 0.55 0.703 1.207 1.314 1.839 1.864 0.639 0.542 1.295 0.978 1.885 1.309 0.591 0.334 1.115 0.56 1.515 0.697 0.391 0.146 0.612 0.177 0.612 0.177l0.056 5e-3c0.177 0.023 0.362-0.013 0.519-0.118 0.351-0.231 0.452-0.704 0.218-1.056 0 0-0.121-0.185-0.334-0.503"/>
  <path transform="matrix(1.3333 0 0 -1.3333 606.83 365.42)" d="m0 0c-0.097 0.793-0.241 1.584-0.277 2.373-8e-3 0.794-0.054 1.587-0.034 2.373 0.085 1.571 0.224 3.138 0.583 4.661 0.339 1.523 0.763 3.014 1.418 4.453 0.134 0.292 0.447 0.467 0.781 0.4 0.383-0.069 0.636-0.442 0.565-0.829l-6e-3 -0.013c-0.138-0.719-0.215-1.425-0.318-2.152-0.087-0.724-0.151-1.446-0.172-2.167-0.054-0.724-0.023-1.449-0.054-2.16-7e-3 -0.719 0.075-1.433 0.082-2.147 0.049-0.706 0.157-1.412 0.226-2.119 0.103-0.695 0.268-1.379 0.38-2.069 0.108-0.696 0.375-1.346 0.555-2.021 0.165-0.678 0.444-1.312 0.704-1.952 0.246-0.65 0.503-1.292 0.876-1.877 0.359-0.588 0.628-1.231 1.024-1.798l1.212-1.687c0.385-0.578 0.945-1.019 1.392-1.554 0.48-0.503 0.917-1.063 1.489-1.479l1.623-1.351c0.514-0.5 1.171-0.808 1.746-1.227l1.798-1.192 0.105-0.071c0.558-0.373 0.766-1.11 0.46-1.726l-0.367-0.735c-0.1-0.257-0.142-0.534-0.228-0.801-0.057-0.133-0.024-0.278-0.049-0.413l-0.039-0.427c-0.02-0.29 0.051-0.578 0.064-0.873 0.036-0.295 0.157-0.572 0.224-0.87 0.09-0.291 0.251-0.55 0.375-0.84 0.149-0.267 0.346-0.506 0.508-0.783 0.198-0.247 0.421-0.457 0.632-0.704l0.097-0.108c0.175-0.203 0.201-0.513 0.036-0.75-0.187-0.277-0.567-0.346-0.847-0.151-0.318 0.218-0.658 0.431-0.976 0.681-0.28 0.272-0.586 0.546-0.835 0.857l-0.352 0.501c-0.107 0.167-0.251 0.321-0.325 0.508-0.165 0.373-0.383 0.735-0.507 1.128-0.102 0.4-0.254 0.796-0.305 1.217l-0.056 0.637c-6e-3 0.215-0.052 0.428-0.011 0.642 0.054 0.416 0.09 0.842 0.19 1.253l-1.071 0.57c-0.677 0.396-1.425 0.678-2.044 1.176l-1.916 1.412c-0.665 0.445-1.207 1.038-1.79 1.59-0.546 0.578-1.175 1.096-1.648 1.752l-1.451 1.933c-0.478 0.65-0.819 1.395-1.212 2.096-0.419 0.698-0.709 1.445-0.991 2.203-0.285 0.755-0.609 1.495-0.761 2.286-0.164 0.785-0.42 1.553-0.503 2.344"/>
  <path transform="matrix(1.3333 0 0 -1.3333 598.7 364.17)" d="m0 0c-0.226 0.617-0.472 1.287-0.603 2.029-0.136 0.734-0.385 1.51-0.424 2.332-0.061 0.819-0.2 1.669-0.164 2.537 0.01 0.868 0.025 1.748 0.138 2.619 0.059 0.883 0.249 1.741 0.432 2.589 0.139 0.852 0.447 1.651 0.675 2.434 0.545 1.549 1.179 2.94 1.857 4.055 1.292 2.255 2.624 3.472 2.624 3.472 0.201 0.183 0.504 0.246 0.773 0.134 0.368-0.157 0.537-0.578 0.383-0.948 0 0-0.622-1.479-1.379-3.757-0.177-0.568-0.37-1.184-0.573-1.831-0.195-0.652-0.349-1.343-0.557-2.049-0.139-0.722-0.349-1.449-0.465-2.206-0.161-0.75-0.259-1.518-0.354-2.285-0.134-0.769-0.17-1.542-0.203-2.307-0.095-0.762-0.046-1.51-0.062-2.242-0.025-0.729 0.062-1.432 0.09-2.105 0.023-0.679 0.103-1.315 0.19-1.901 0.098-0.585 0.108-1.145 0.213-1.623 0.09-0.48 0.173-0.901 0.237-1.25 0.108-0.712 0.172-1.117 0.172-1.117l0.01-0.054c0.038-0.242-0.074-0.496-0.293-0.627-0.295-0.182-0.678-0.087-0.86 0.208 0 0-0.218 0.367-0.583 1.027-0.365 0.663-0.883 1.623-1.274 2.866"/>
  <path transform="matrix(1.3333 0 0 -1.3333 601.57 327.54)" d="m0 0c-0.093-0.344-0.213-0.86-0.414-1.438-0.177-0.591-0.405-1.269-0.675-1.964-0.118-0.357-0.241-0.727-0.403-1.087-0.17-0.352-0.267-0.74-0.424-1.107-0.298-0.739-0.619-1.471-0.881-2.177-0.274-0.699-0.611-1.343-0.824-1.916-0.47-1.138-0.965-1.908-0.965-1.908l-0.034-0.057c-0.09-0.138-0.239-0.246-0.413-0.282-0.355-0.08-0.704 0.149-0.781 0.498 0 0-0.195 0.891-0.21 2.247-0.044 0.689 0.092 1.451 0.215 2.283 0.09 0.406 0.134 0.847 0.262 1.266 0.139 0.416 0.277 0.845 0.416 1.264 0.277 0.85 0.694 1.651 1.097 2.38 0.413 0.729 0.888 1.359 1.325 1.872 0.441 0.516 0.86 0.907 1.188 1.168 0.324 0.27 0.517 0.371 0.517 0.371l0.048 0.03c0.16 0.08 0.35 0.108 0.535 0.064 0.405-0.097 0.66-0.51 0.562-0.919 0 0-0.051-0.211-0.141-0.588"/>
  <path transform="matrix(1.3333 0 0 -1.3333 201.22 263.33)" d="m0 0s-0.046-0.105-0.131-0.303c-0.079-0.208-0.208-0.509-0.326-0.891-0.259-0.765-0.56-1.88-0.758-3.249-0.09-0.685-0.192-1.433-0.202-2.229-0.062-0.799-0.021-1.646 0.038-2.519 0.051-0.876 0.203-1.78 0.372-2.689 0.267-0.896 0.388-1.844 0.791-2.714 0.342-0.894 0.704-1.772 1.187-2.589 0.424-0.839 0.981-1.587 1.53-2.293 0.499-0.75 1.161-1.32 1.741-1.887 0.296-0.28 0.573-0.565 0.868-0.804 0.314-0.216 0.614-0.426 0.907-0.629 0.583-0.396 1.096-0.778 1.608-1.022 0.51-0.252 0.962-0.445 1.332-0.609 0.74-0.321 1.158-0.48 1.158-0.48 0.322-0.126 0.681 0.036 0.804 0.354 0.098 0.249 0.023 0.519-0.162 0.686l-0.053 0.049s-0.324 0.292-0.884 0.801c-0.282 0.239-0.624 0.529-1.022 0.863-0.396 0.323-0.745 0.793-1.189 1.222-0.216 0.218-0.439 0.447-0.67 0.683-0.203 0.262-0.411 0.534-0.629 0.812-0.429 0.549-0.886 1.114-1.254 1.777-0.413 0.629-0.814 1.289-1.117 2.026-0.382 0.685-0.66 1.441-0.919 2.2-0.306 0.74-0.462 1.547-0.699 2.302-0.143 0.785-0.343 1.553-0.462 2.316-0.234 1.52-0.362 2.971-0.434 4.234-0.115 2.538-0.054 4.246-0.054 4.25l5e-3 0.019c0.013 0.397-0.293 0.731-0.688 0.744-0.303 0.013-0.575-0.169-0.688-0.431"/>
  <path transform="matrix(1.3333 0 0 -1.3333 222.52 247.81)" d="m0 0c5e-3 0-0.095-0.026-0.313-0.124-0.216-0.089-0.529-0.22-0.889-0.416-0.739-0.387-1.767-0.996-2.845-1.939-0.57-0.443-1.115-1.001-1.675-1.612-0.559-0.606-1.101-1.307-1.607-2.07-0.478-0.776-0.994-1.571-1.338-2.483-0.418-0.871-0.706-1.813-0.95-2.766-0.27-0.945-0.319-1.936-0.475-2.886-0.036-0.955 0.015-1.901 0.023-2.807 0.113-0.894 0.29-1.751 0.429-2.558 0.143-0.806 0.465-1.523 0.665-2.195 0.395-1.361 1.045-2.355 1.405-3.08 0.385-0.711 0.626-1.106 0.626-1.106 0.18-0.293 0.557-0.388 0.853-0.211 0.228 0.139 0.336 0.396 0.293 0.645l-0.011 0.059s-0.082 0.434-0.218 1.202c-0.082 0.374-0.177 0.826-0.29 1.348-0.152 0.511-0.195 1.106-0.28 1.738-0.074 0.637-0.208 1.318-0.255 2.037-0.025 0.719-0.038 1.474-0.086 2.247 0.061 0.765 0.118 1.556 0.176 2.36 0.173 0.778 0.219 1.595 0.476 2.36 0.246 0.77 0.411 1.561 0.76 2.283 0.275 0.747 0.652 1.438 0.991 2.123 0.38 0.663 0.765 1.3 1.156 1.895 0.416 0.579 0.806 1.136 1.207 1.623 0.788 0.981 1.52 1.765 2.049 2.296 0.264 0.263 0.467 0.471 0.611 0.606 0.131 0.139 0.236 0.216 0.236 0.216 0.303 0.241 0.36 0.686 0.118 0.997-0.182 0.233-0.488 0.326-0.755 0.243z"/>
 </g>
 <g fill="#363536">
  <path transform="matrix(1.3333 0 0 -1.3333 731.38 184.4)" d="m0 0c0.562 2.422-0.593 9.694-2.029 12.717-1.443 3.025-4.789 3.192-7.056 2.74-2.268-0.455-8.932-4.679-10.66-6.482-1.729-1.8-0.432-4.609 2.16-6.266 2.593-1.656 7.274-2.303 7.853-2.087 0.575 0.215-6e-3 2.157 1.581 1.725 1.585-0.431 0.722-1.887 2.016-2.347 1.297-0.459 3.631-0.403 6.135 0"/>
  <path transform="matrix(1.3333 0 0 -1.3333 735.44 192.89)" d="m0 0c-0.76-0.789-3.279-1.001-6.374-2.945-3.097-1.945-4.085-4.826-6.869-8.285-2.779-3.454-8.387-9.216-10.334-10.223-1.951-1.006-2.093 0.791-3.821 0-1.731-0.794-3.171-4.25-2.956-4.969 0.218-0.722 4.679 0.865 7.345 2.375 2.665 1.513 4.841 6.551 7.822 9.001s6.582 5.904 9.966 7.778c3.38 1.872 5.668 2.332 5.668 2.332s-1.058 2.199-0.447 4.936"/>
  <path transform="matrix(1.3333 0 0 -1.3333 640.42 191.89)" d="m0 0c2.784-5.154 8.451-7.833 12.652-5.979 4.202 1.854 5.355 7.53 2.568 12.684-2.781 5.154-8.449 7.833-12.652 5.981-4.204-1.857-5.355-7.535-2.568-12.686"/>
 </g>
 <path transform="matrix(1.3333 0 0 -1.3333 633.91 146.61)" d="m0 0c6.602 2.984 11.448 0.875 14.042-3.025 2.283-3.436 0.973-6.482-0.755-7.992-1.728-1.515-15.558-7.67-18.146-7.778-2.596-0.111-3.567 4.43-3.135 6.697 0.436 2.265 3.459 10.046 7.994 12.098" fill="#ffb77a"/>
 <path transform="matrix(1.3333 0 0 -1.3333 363.83 413.96)" d="m0 0c15.352-25.803 6.877-59.156-18.937-74.513-25.795-15.351-59.151-6.872-74.502 18.931-15.347 25.798-6.877 59.162 18.918 74.508 25.811 15.357 59.169 6.872 74.521-18.926z" fill="none" stroke="#fff" stroke-miterlimit="10" stroke-width="2.63"/>
 <g clip-path="url(#clipPath44)" fill="#fff" opacity=".39999" class="hero-bubble-float">
  <path transform="matrix(1.3333 0 0 -1.3333 276.4 444.07)" d="m0 0c-4.027-9.083-12.483-14.145-18.903-11.312-6.42 2.843-8.367 12.509-4.358 21.594 4.027 9.086 12.483 14.14 18.903 11.31 6.422-2.845 8.361-12.514 4.358-21.592" clip-path="url(#clipPath42)"/>
  <path transform="matrix(1.3333 0 0 -1.3333 270.71 476.66)" d="m0 0c2.881-5.208 2.229-11.073-1.458-13.112-3.675-2.034-8.994 0.529-11.877 5.737-2.884 5.208-2.232 11.078 1.458 13.117 3.68 2.039 8.991-0.539 11.877-5.742"/>
 </g>
 <path transform="matrix(1.3333 0 0 -1.3333 722.67 99.19)" d="m0 0c-11.888 0.95-20.755 11.358-19.802 23.258 0.953 11.885 11.361 20.75 23.253 19.795 11.89-0.95 20.76-11.359 19.805-23.246-0.95-11.895-11.364-20.76-23.256-19.807z" fill="none" stroke="#fff" stroke-miterlimit="10" stroke-width="2.63"/>
 <g clip-path="url(#clipPath49)" opacity=".39999" class="hero-bubble-float">
  <path transform="matrix(1.3333 0 0 -1.3333 733 63.933)" d="m0 0c-2.019 3.39-1.715 7.293 0.678 8.726 2.396 1.428 5.976-0.164 7.999-3.549 2.021-3.39 1.718-7.293-0.677-8.726-2.396-1.428-5.977 0.164-8 3.549" clip-path="url(#clipPath47)" fill="#fff"/>
 </g>
 <g clip-path="url(#clipPath52)" opacity=".39999" class="hero-bubble-float">
  <path transform="matrix(1.3333 0 0 -1.3333 723.74 54.603)" d="m0 0c-2.353 0.262-4.099 1.821-3.914 3.485 0.183 1.657 2.237 2.789 4.589 2.532 2.352-0.262 4.104-1.823 3.914-3.487-0.185-1.664-2.237-2.789-4.589-2.53" clip-path="url(#clipPath50)" fill="#fff"/>
 </g>
 <path transform="matrix(1.3333 0 0 -1.3333 1170.9 482.61)" d="m0 0c-4.648-31.394-33.864-53.067-65.278-48.42-31.381 4.646-53.056 33.869-48.408 65.266 4.646 31.391 33.862 53.073 65.253 48.425 31.405-4.646 53.079-33.88 48.433-65.271z" fill="none" stroke="#fff" stroke-miterlimit="10" stroke-width="2.63"/>
 <g clip-path="url(#clipPath56)" opacity=".39999" class="hero-bubble-float">
  <path transform="matrix(1.3333 0 0 -1.3333 1079.1 448.9)" d="m0 0c-9.357-4.751-19.674-3.249-23.037 3.354-3.372 6.617 1.489 15.842 10.842 20.61 9.363 4.759 19.666 3.257 23.043-3.359 3.366-6.617-1.508-15.836-10.848-20.605" clip-path="url(#clipPath54)" fill="#fff"/>
 </g>
 <g clip-path="url(#clipPath59)" opacity=".39999" class="hero-bubble-float">
  <path transform="matrix(1.3333 0 0 -1.3333 1052.7 471.81)" d="m0 0c-1.119-6.196-5.564-10.56-9.95-9.776-4.368 0.788-7.014 6.44-5.904 12.634 1.112 6.197 5.567 10.573 9.96 9.777 4.374-0.783 7.001-6.446 5.894-12.635" clip-path="url(#clipPath57)" fill="#fff"/>
 </g>
 <path transform="matrix(1.3333 0 0 -1.3333 934.21 224.56)" d="m0 0c-1.199-8.104-8.744-13.703-16.859-12.503-8.104 1.199-13.7 8.746-12.501 16.856 1.199 8.107 8.744 13.706 16.854 12.506 8.11-1.199 13.708-8.749 12.506-16.859z" fill="none" stroke="#fff" stroke-miterlimit="10" stroke-width="1.315"/>
 <g clip-path="url(#clipPath63)" opacity=".39999" class="hero-bubble-float">
  <path transform="matrix(1.3333 0 0 -1.3333 910.51 215.85)" d="m0 0c-2.417-1.228-5.08-0.84-5.95 0.865-0.868 1.711 0.385 4.093 2.802 5.326 2.416 1.228 5.079 0.84 5.95-0.868 0.87-1.71-0.388-4.091-2.802-5.323" clip-path="url(#clipPath61)" fill="#fff"/>
 </g>
 <g clip-path="url(#clipPath66)" opacity=".39999" class="hero-bubble-float">
  <path transform="matrix(1.3333 0 0 -1.3333 903.69 221.76)" d="m0 0c-0.29-1.603-1.438-2.727-2.57-2.527-1.128 0.206-1.811 1.664-1.526 3.264 0.288 1.6 1.438 2.73 2.573 2.524 1.13-0.2 1.808-1.664 1.523-3.261" clip-path="url(#clipPath64)" fill="#fff"/>
 </g>
 <path transform="matrix(1.3333 0 0 -1.3333 794.12 666.67)" d="m0 0c-0.013 28.525 23.102 51.652 51.635 51.666 28.533 0.01 51.663-23.123 51.665-51.658" clip-path="url(#clipPath68)" fill="none" stroke="#fff" stroke-miterlimit="10" stroke-width="1.315"/>
 <g clip-path="url(#clipPath71)" opacity=".39999" class="hero-bubble-float">
  <path transform="matrix(1.3333 0 0 -1.3333 845.82 648.78)" d="m0 0c-7.696-5.459-17.062-5.485-20.929-0.059-3.86 5.447-0.765 14.291 6.926 19.766 7.693 5.462 17.059 5.485 20.929 0.054 3.87-5.445 0.75-14.283-6.926-19.761" clip-path="url(#clipPath69)" fill="#fff"/>
 </g>
 <g clip-path="url(#clipPath74)" opacity=".39999" class="hero-bubble-float">
  <path transform="matrix(1.3333 0 0 -1.3333 888.4 612.99)" d="m0 0c5.185-2.288 8.053-7.088 6.453-10.76-1.618-3.646-7.111-4.766-12.29-2.496-5.177 2.28-8.064 7.093-6.441 10.765 1.6 3.659 7.103 4.762 12.278 2.491" clip-path="url(#clipPath72)" fill="#fff"/>
 </g>
 <path transform="matrix(1.3333 0 0 -1.3333 116.84 499.97)" d="m0 0c-1.199-8.104-8.744-13.703-16.859-12.504-8.105 1.199-13.701 8.747-12.501 16.857 1.199 8.107 8.744 13.705 16.854 12.506s13.708-8.75 12.506-16.859z" fill="none" stroke="#fff" stroke-miterlimit="10" stroke-width="1.315"/>
 <g clip-path="url(#clipPath78)" opacity=".39999" class="hero-bubble-float">
  <path transform="matrix(1.3333 0 0 -1.3333 93.139 491.26)" d="m0 0c-2.417-1.228-5.08-0.84-5.95 0.865-0.868 1.711 0.385 4.094 2.802 5.326 2.416 1.228 5.079 0.84 5.95-0.868 0.87-1.71-0.388-4.091-2.802-5.323" clip-path="url(#clipPath76)" fill="#fff"/>
 </g>
 <g clip-path="url(#clipPath81)" opacity=".39999" class="hero-bubble-float">
  <path transform="matrix(1.3333 0 0 -1.3333 86.319 497.17)" d="m0 0c-0.291-1.603-1.438-2.728-2.571-2.527-1.127 0.206-1.81 1.664-1.525 3.264 0.287 1.6 1.438 2.73 2.573 2.524 1.13-0.2 1.808-1.664 1.523-3.261" clip-path="url(#clipPath79)" fill="#fff"/>
 </g>
 <path transform="matrix(1.3333 0 0 -1.3333 734.64 493.72)" d="M 0,0 C -15.408,2.455 -25.914,16.928 -23.458,32.362 -21.009,47.768 -6.52,58.266 8.896,55.811 24.309,53.361 34.812,38.877 32.357,23.464 29.907,8.038 15.414,-2.455 0,0 Z" fill="none" stroke="#fff" stroke-miterlimit="10" stroke-width="1.315"/>
 <g clip-path="url(#clipPath85)" opacity=".39999" class="hero-bubble-float">
  <path transform="matrix(1.3333 0 0 -1.3333 751.71 448.78)" d="m0 0c-2.288 4.627-1.492 9.691 1.77 11.317 3.276 1.613 7.791-0.821 10.089-5.449 2.283-4.625 1.492-9.692-1.779-11.31-3.277-1.625-7.782 0.822-10.08 5.442" clip-path="url(#clipPath83)" fill="#fff"/>
 </g>
 <g clip-path="url(#clipPath88)" opacity=".39999" class="hero-bubble-float">
  <path transform="matrix(1.3333 0 0 -1.3333 740.59 435.66)" d="m0 0c-3.045 0.583-5.162 2.794-4.756 4.941 0.414 2.142 3.205 3.413 6.243 2.835 3.043-0.575 5.169-2.792 4.753-4.948-0.4-2.142-3.207-3.403-6.24-2.828" clip-path="url(#clipPath86)" fill="#fff"/>
 </g>
 <path transform="matrix(1.3333 0 0 -1.3333 185.39 120.95)" d="m0 0c-2.696-18.208-19.64-30.775-37.857-28.079-18.197 2.694-30.768 19.641-28.074 37.848 2.697 18.207 19.64 30.779 37.842 28.083 18.213-2.696 30.783-19.647 28.089-37.852z" fill="none" stroke="#fff" stroke-miterlimit="10" stroke-width="2.63"/>
 <g clip-path="url(#clipPath92)" opacity=".39999" class="hero-bubble-float">
  <path transform="matrix(1.3333 0 0 -1.3333 132.17 101.4)" d="m0 0c-5.426-2.755-11.41-1.882-13.361 1.944-1.954 3.842 0.865 9.188 6.289 11.956 5.431 2.759 11.404 1.886 13.364-1.949 1.949-3.839-0.876-9.185-6.292-11.951" clip-path="url(#clipPath90)" fill="#fff"/>
 </g>
 <g clip-path="url(#clipPath95)" opacity=".39999" class="hero-bubble-float">
  <path transform="matrix(1.3333 0 0 -1.3333 116.85 114.68)" d="m0 0c-0.65-3.593-3.228-6.122-5.771-5.67-2.531 0.457-4.067 3.734-3.425 7.329 0.647 3.592 3.231 6.13 5.778 5.67 2.537-0.457 4.06-3.739 3.418-7.329" clip-path="url(#clipPath93)" fill="#fff"/>
 </g>
 <path transform="matrix(1.3333 0 0 -1.3333 1517.8 493.23)" d="m0 0c14.671 0 26.562 11.89 26.562 26.558 0 14.669-11.891 26.558-26.562 26.558h-192.56c-14.666 0-26.555-11.889-26.555-26.558 0-14.668 11.889-26.558 26.555-26.558z" fill="#F9C74F"/>
 <path transform="matrix(1.3333 0 0 -1.3333 1849.5 493.23)" d="m0 0c14.672 0 26.564 11.89 26.564 26.558 0 14.669-11.892 26.558-26.564 26.558h-174.02c-14.666 0-26.556-11.889-26.556-26.558 0-14.668 11.89-26.558 26.556-26.558z" fill="none" stroke="#F9C74F" stroke-miterlimit="10" stroke-width="2.52"/>
</svg>
